<?xml version="1.0" standalone="no"?>
<!DOCTYPE svg PUBLIC "-//W3C//DTD SVG 20010904//EN"
 "http://www.w3.org/TR/2001/REC-SVG-20010904/DTD/svg10.dtd">
<svg version="1.0" xmlns="http://www.w3.org/2000/svg"
 width="500.000000pt" height="500.000000pt" viewBox="0 0 500.000000 500.000000"
 preserveAspectRatio="xMidYMid meet">
<metadata>
Created by potrace 1.14, written by Peter Selinger 2001-2017
</metadata>
<g transform="translate(0.000000,500.000000) scale(0.100000,-0.100000)"
fill="#000000" stroke="none">
<path d="M2025 4880 c-11 -5 -30 -6 -42 -3 -24 5 -61 -11 -178 -76 -44 -25
-93 -53 -110 -62 -16 -10 -51 -27 -77 -39 -27 -12 -48 -26 -48 -30 0 -5 -13
-11 -30 -15 -16 -4 -30 -10 -30 -14 0 -3 -17 -15 -37 -26 -72 -38 -158 -90
-161 -97 -2 -5 -7 -6 -11 -3 -5 2 -23 -7 -41 -20 -19 -14 -37 -25 -41 -25 -9
0 -254 -147 -309 -185 -30 -21 -46 -41 -50 -61 -14 -69 9 -1048 25 -1073 3 -5
1 -12 -5 -16 -6 -4 -7 -12 -3 -18 4 -6 8 -34 9 -62 1 -27 5 -93 8 -145 4 -52
9 -124 11 -160 6 -101 16 -194 21 -202 3 -5 0 -8 -6 -8 -6 0 -8 -5 -4 -12 4
-7 9 -28 10 -48 2 -41 10 -125 25 -265 6 -55 13 -116 15 -135 9 -99 13 -132
23 -205 14 -100 21 -150 26 -195 2 -19 7 -46 9 -60 3 -14 7 -46 10 -72 3 -26
7 -51 9 -55 3 -5 7 -30 11 -58 3 -27 8 -59 10 -70 2 -11 7 -40 11 -65 9 -56
13 -78 20 -110 3 -14 7 -38 10 -55 2 -16 6 -39 9 -50 2 -11 14 -69 26 -130 27
-140 36 -177 56 -248 3 -9 20 -25 37 -33 28 -15 50 -38 52 -54 0 -3 7 -27 14
-53 10 -34 22 -52 41 -62 49 -25 420 -174 420 -168 0 3 6 1 13 -5 25 -21 543
-204 582 -205 36 -1 156 8 245 18 19 2 62 7 95 10 33 4 76 9 95 10 111 11 168
17 195 20 17 2 64 7 105 10 41 3 122 10 180 16 58 6 125 12 150 15 85 7 135
13 155 17 11 3 56 8 100 13 44 4 83 9 88 10 4 1 19 2 35 3 50 2 50 3 66 141 6
53 16 70 40 71 32 1 100 10 103 13 6 5 12 65 18 166 5 86 9 162 20 335 7 112
15 269 21 395 3 69 7 163 9 210 3 47 7 137 10 200 3 63 7 153 10 200 6 115 16
342 20 470 5 158 15 413 20 525 7 181 8 379 0 416 -4 20 -3 39 2 42 9 6 9 313
-1 658 -9 299 -11 311 -59 322 -12 3 -62 17 -112 32 -49 15 -97 29 -105 31 -8
2 -149 37 -313 78 -164 41 -310 77 -325 79 -15 3 -54 12 -87 20 -33 8 -78 18
-100 22 -22 4 -44 9 -49 13 -5 3 -21 6 -35 8 -14 1 -35 5 -46 8 -57 13 -114
26 -145 31 -19 3 -55 11 -80 16 -42 10 -106 22 -175 34 -16 3 -50 10 -75 15
-49 10 -139 26 -210 35 -24 4 -47 8 -50 10 -3 2 -30 4 -60 6 -30 1 -57 6 -60
9 -3 4 -14 4 -25 0z"/>
</g>
</svg>
